# xmcd
#
# Track frame offsets:
#	150
#	14637
#	27467
#	45750
#	55692
#	69987
#	84127
#	93597
#	107217
#	120327
#	130205
#	146535
#
# Disc length: 2109 seconds
#
# Revision: 1
# Processed by: cddbd v1.4PL0 Copyright (c) Steve Scherf et al.
# Submitted via: EasyCDDAExtractor 5.0.7
#
DISCID=94083b0c
DTITLE=Willie Nelson - Me and Paul
DYEAR=1985
DGENRE=Country
TTITLE0=I Been To Georgia On A Fast Train
TTITLE1=Forgiving You Was Easy
TTITLE2=I Let My Mind Wander
TTITLE3=I'm A Memory
TTITLE4=She's Gone
TTITLE5=Old Five and Dimers Like Me
TTITLE6=I Never Cared For You
TTITLE7=You Wouldn't Cross The Street
TTITLE8=Me And Paul
TTITLE9=One Day At A Time
TTITLE10=Pretend I Never Happened
TTITLE11=Black Rose
EXTD=
EXTT0=
EXTT1=
EXTT2=
EXTT3=
EXTT4=
EXTT5=
EXTT6=
EXTT7=
EXTT8=
EXTT9=
EXTT10=
EXTT11=
PLAYORDER=
